<svg xmlns="http://www.w3.org/2000/svg" viewBox="0 0 80 80" fill="none"><title>Villa Israel · Centro de Salud</title><path d="M59 10A33 33 0 1 0 71 38" fill="none" stroke="#e7f4f6" stroke-width="3.5" stroke-linecap="round"/>
  <path d="M65 18A33 33 0 0 1 71 28" fill="none" stroke="#18c2ad" stroke-width="3.5" stroke-linecap="round"/>
  <circle cx="64" cy="16" r="3.3" fill="#18c2ad"/>
  <path d="M18 28C17 43 25 56 40 63V49C30 45 26 38 25 29Z" fill="#e7f4f6"/>
  <path d="M62 28C63 43 55 56 40 63V49C50 45 54 38 55 29Z" fill="#18c2ad"/>
  <circle cx="40" cy="23" r="6" fill="#18c2ad"/>
  <path d="M32 36Q40 31 48 36L44 47Q40 50 36 47Z" fill="#e7f4f6"/>
  <path d="M23 31Q27 42 34 46M57 31Q53 42 46 46" fill="none" stroke="#93e1d5" stroke-width="1.5" stroke-linecap="round"/></svg>